<?xml version="1.0" encoding="UTF-8" standalone="yes"?><svg xmlns="http://www.w3.org/2000/svg" xmlns:xlink="http://www.w3.org/1999/xlink" height="245px" style="width:467px;height:245px;" version="1.1" viewBox="0 0 467 245" width="467px"><defs><filter height="300%" id="f1" width="300%" x="-1" y="-1"><feGaussianBlur result="blurOut" stdDeviation="2.0"/><feColorMatrix in="blurOut" result="blurOut2" type="matrix" values="0 0 0 0 0 0 0 0 0 0 0 0 0 0 0 0 0 0 .4 0"/><feOffset dx="4.0" dy="4.0" in="blurOut2" result="blurOut3"/><feBlend in="SourceGraphic" in2="blurOut3" mode="normal"/></filter></defs><g><rect fill="#FEFECE" filter="url(#f1)" height="24.1328" style="stroke: #A80036; stroke-width: 1.5;" width="109" x="154" y="8"/><text fill="#000000" font-family="sans-serif" font-size="12" lengthAdjust="spacingAndGlyphs" textLength="103" x="157" y="24.6016">DispatcherFactory</text><rect fill="#FEFECE" filter="url(#f1)" height="24.1328" style="stroke: #A80036; stroke-width: 1.5;" width="111" x="153" y="110"/><text fill="#000000" font-family="sans-serif" font-size="12" lengthAdjust="spacingAndGlyphs" textLength="105" x="156" y="126.6016">ServiceDescription</text><rect fill="#FEFECE" filter="url(#f1)" height="24.1328" style="stroke: #A80036; stroke-width: 1.5;" width="122" x="147.25" y="212"/><text fill="#000000" font-family="sans-serif" font-size="12" lengthAdjust="spacingAndGlyphs" textLength="116" x="150.25" y="228.6016">EndpointDescription</text><rect fill="#FEFECE" filter="url(#f1)" height="24.1328" style="stroke: #A80036; stroke-width: 1.5;" width="35" x="6" y="110"/><text fill="#000000" font-family="sans-serif" font-size="12" lengthAdjust="spacingAndGlyphs" textLength="29" x="9" y="126.6016">Type</text><rect fill="#FEFECE" filter="url(#f1)" height="24.1328" style="stroke: #A80036; stroke-width: 1.5;" width="95" x="363" y="110"/><text fill="#000000" font-family="sans-serif" font-size="12" lengthAdjust="spacingAndGlyphs" textLength="89" x="366" y="126.6016">ServiceBehavior</text><path d="M208.25,45.346 C208.25,65.894 208.25,94.371 208.25,109.867 " fill="none" style="stroke: #A80036; stroke-width: 1.0;"/><polygon fill="#A80036" points="208.25,32.084,204.25,38.084,208.25,44.084,212.25,38.084,208.25,32.084" style="stroke: #A80036; stroke-width: 1.0;"/><text fill="#000000" font-family="sans-serif" font-size="13" lengthAdjust="spacingAndGlyphs" textLength="51" x="209.25" y="75.5684">services</text><path d="M208.25,147.346 C208.25,167.8943 208.25,196.371 208.25,211.8665 " fill="none" style="stroke: #A80036; stroke-width: 1.0;"/><polygon fill="#A80036" points="208.25,134.084,204.25,140.084,208.25,146.084,212.25,140.084,208.25,134.084" style="stroke: #A80036; stroke-width: 1.0;"/><text fill="#000000" font-family="sans-serif" font-size="13" lengthAdjust="spacingAndGlyphs" textLength="63" x="209.25" y="177.5684">endpoints</text><path d="M40.6544,122 C63.2259,122 103.9314,122 139.573,122 " fill="none" style="stroke: #A80036; stroke-width: 1.0;"/><polygon fill="#A80036" points="152.937,122,146.937,118,140.937,122,146.937,126,152.937,122" style="stroke: #A80036; stroke-width: 1.0;"/><text fill="#000000" font-family="sans-serif" font-size="13" lengthAdjust="spacingAndGlyphs" textLength="74" x="59" y="114.5684">serviceType</text><path d="M276.824,122 C305.104,122 337.177,122 362.789,122 " fill="none" style="stroke: #A80036; stroke-width: 1.0;"/><polygon fill="#A80036" points="263.715,122,269.715,126,275.715,122,269.715,118,263.715,122" style="stroke: #A80036; stroke-width: 1.0;"/><text fill="#000000" font-family="sans-serif" font-size="13" lengthAdjust="spacingAndGlyphs" textLength="61" x="282" y="114.5684">behaviors</text></g></svg>