<?xml version="1.0" encoding="UTF-8" standalone="yes"?><svg xmlns="http://www.w3.org/2000/svg" xmlns:xlink="http://www.w3.org/1999/xlink" height="245px" style="width:584px;height:245px;" version="1.1" viewBox="0 0 584 245" width="584px"><defs><filter height="300%" id="f1" width="300%" x="-1" y="-1"><feGaussianBlur result="blurOut" stdDeviation="2.0"/><feColorMatrix in="blurOut" result="blurOut2" type="matrix" values="0 0 0 0 0 0 0 0 0 0 0 0 0 0 0 0 0 0 .4 0"/><feOffset dx="4.0" dy="4.0" in="blurOut2" result="blurOut3"/><feBlend in="SourceGraphic" in2="blurOut3" mode="normal"/></filter></defs><g><rect fill="#FEFECE" filter="url(#f1)" height="24.1328" style="stroke: #A80036; stroke-width: 1.5;" width="96" x="267" y="8"/><text fill="#000000" font-family="sans-serif" font-size="12" lengthAdjust="spacingAndGlyphs" textLength="90" x="270" y="24.6016">DispatchService</text><rect fill="#FEFECE" filter="url(#f1)" height="24.1328" style="stroke: #A80036; stroke-width: 1.5;" width="107" x="261.75" y="110"/><text fill="#000000" font-family="sans-serif" font-size="12" lengthAdjust="spacingAndGlyphs" textLength="101" x="264.75" y="126.6016">DispatchEndpoint</text><rect fill="#FEFECE" filter="url(#f1)" height="24.1328" style="stroke: #A80036; stroke-width: 1.5;" width="113" x="30.75" y="212"/><text fill="#000000" font-family="sans-serif" font-size="12" lengthAdjust="spacingAndGlyphs" textLength="107" x="33.75" y="228.6016">DispatchOperation</text><rect fill="#FEFECE" filter="url(#f1)" height="24.1328" style="stroke: #A80036; stroke-width: 1.5;" width="84" x="438" y="110"/><text fill="#000000" font-family="sans-serif" font-size="12" lengthAdjust="spacingAndGlyphs" textLength="78" x="441" y="126.6016">MessageFilter</text><rect fill="#FEFECE" filter="url(#f1)" height="24.1328" style="stroke: #A80036; stroke-width: 1.5;" width="108" x="6" y="110"/><text fill="#000000" font-family="sans-serif" font-size="12" lengthAdjust="spacingAndGlyphs" textLength="102" x="9" y="126.6016">OperationSelector</text><rect fill="#FEFECE" filter="url(#f1)" height="24.1328" style="stroke: #A80036; stroke-width: 1.5;" width="109" x="178.75" y="212"/><text fill="#000000" font-family="sans-serif" font-size="12" lengthAdjust="spacingAndGlyphs" textLength="103" x="181.75" y="228.6016">MessageInspector</text><rect fill="#FEFECE" filter="url(#f1)" height="24.1328" style="stroke: #A80036; stroke-width: 1.5;" width="81" x="356.75" y="212"/><text fill="#000000" font-family="sans-serif" font-size="12" lengthAdjust="spacingAndGlyphs" textLength="75" x="359.75" y="228.6016">ErrorHandler</text><rect fill="#FEFECE" filter="url(#f1)" height="24.1328" style="stroke: #A80036; stroke-width: 1.5;" width="89" x="481.75" y="212"/><text fill="#000000" font-family="sans-serif" font-size="12" lengthAdjust="spacingAndGlyphs" textLength="83" x="484.75" y="228.6016">FaultFormatter</text><path d="M315,45.346 C315,65.894 315,94.371 315,109.867 " fill="none" style="stroke: #A80036; stroke-width: 1.0;"/><polygon fill="#A80036" points="315,32.084,311,38.084,315,44.084,319,38.084,315,32.084" style="stroke: #A80036; stroke-width: 1.0;"/><text fill="#000000" font-family="sans-serif" font-size="13" lengthAdjust="spacingAndGlyphs" textLength="63" x="316" y="75.5684">endpoints</text><path d="M248.689,130.773 C216.483,136.593 178.121,146.6664 147,164 C125.303,176.0847 105.9635,198.1372 95.4185,211.5899 " fill="none" style="stroke: #A80036; stroke-width: 1.0;"/><polygon fill="#A80036" points="261.615,128.602,255.0354,125.6509,249.7807,130.5893,256.3603,133.5404,261.615,128.602" style="stroke: #A80036; stroke-width: 1.0;"/><text fill="#000000" font-family="sans-serif" font-size="13" lengthAdjust="spacingAndGlyphs" textLength="67" x="148" y="177.5684">operations</text><path d="M381.79,122 C400.756,122 420.871,122 437.926,122 " fill="none" style="stroke: #A80036; stroke-width: 1.0;"/><polygon fill="#A80036" points="368.571,122,374.571,126,380.571,122,374.571,118,368.571,122" style="stroke: #A80036; stroke-width: 1.0;"/><text fill="#000000" font-family="sans-serif" font-size="13" lengthAdjust="spacingAndGlyphs" textLength="30" x="387.5" y="114.5684">filter</text><path d="M114.079,122 C153.259,122 206.471,122 248.291,122 " fill="none" style="stroke: #A80036; stroke-width: 1.0;"/><polygon fill="#A80036" points="261.437,122,255.437,118,249.437,122,255.437,126,261.437,122" style="stroke: #A80036; stroke-width: 1.0;"/><text fill="#000000" font-family="sans-serif" font-size="13" lengthAdjust="spacingAndGlyphs" textLength="110" x="132.25" y="114.5684">operationSelector</text><path d="M257.69,139.7483 C246.707,145.6318 236.59,153.5045 230,164 C220.946,178.4187 224.896,198.946 228.791,211.5971 " fill="none" style="stroke: #A80036; stroke-width: 1.0;"/><polygon fill="#A80036" points="269.823,134.115,262.6965,133.0137,258.9389,139.1684,266.0654,140.2697,269.823,134.115" style="stroke: #A80036; stroke-width: 1.0;"/><text fill="#000000" font-family="sans-serif" font-size="13" lengthAdjust="spacingAndGlyphs" textLength="121" x="231" y="177.5684">messageInspectors</text><path d="M338.154,143.2606 C344.872,149.6085 352.006,156.8351 358,164 C370.921,179.445 383.292,199.3147 390.516,211.6014 " fill="none" style="stroke: #A80036; stroke-width: 1.0;"/><polygon fill="#A80036" points="328.164,134.144,329.8997,141.1431,337.0279,142.2329,335.2923,135.2338,328.164,134.144" style="stroke: #A80036; stroke-width: 1.0;"/><text fill="#000000" font-family="sans-serif" font-size="13" lengthAdjust="spacingAndGlyphs" textLength="86" x="372" y="177.5684">errorHandlers</text><path d="M381.323,132.773 C409.404,138.8864 441.647,148.634 468,164 C489.094,176.2996 507.749,198.2815 517.903,211.6626 " fill="none" style="stroke: #A80036; stroke-width: 1.0;"/><polygon fill="#A80036" points="368.335,130.134,373.4184,135.2486,380.0947,132.5235,375.0113,127.4088,368.335,130.134" style="stroke: #A80036; stroke-width: 1.0;"/><text fill="#000000" font-family="sans-serif" font-size="13" lengthAdjust="spacingAndGlyphs" textLength="90" x="493" y="177.5684">faultFormatter</text></g></svg>